#!OML:ASF H:\BreakDance\Project 1\Capture day 1\Session 1\Male.ASF
:FULLY-SPECIFIED
:DEGREES
2042
root -10.4274 5.97778 -0.974947 -203.868 -484.584 -175.075
lowerback 39.7464 3.24955 2.22733
upperback 14.5457 3.47551 -1.79438
thorax -2.84914 1.39639 -4.23857
lowerneck -0.174284 8.07066 2.88529
upperneck -12.3798 9.49341 -14.8897
head -2.71563 5.19687 -5.14816
rclavicle -3.21037e-014 2.09718e-014
rhumerus -51.289 -52.5783 -38.1138
rradius 11.3196
rwrist 45.0822
rhand 12.0282 -57.1226
rfingers 7.12502
rthumb 37.0474 636.825
lclavicle -3.21037e-014 2.09718e-014
lhumerus -28.4018 -2.76994 65.0279
lradius 24.8398
lwrist 33.3861
lhand -18.8423 -360.831
lfingers 7.12502
lthumb 7.45736 29.0174
rfemur -103.07 -36.2544 10.7447
rtibia 137.528
rfoot -27.6638 18.369
rtoes -38.5987
lfemur 475.197 84.826 568.524
ltibia 155.662
lfoot -51.7354 -61.8726
ltoes -10.091
2043
root -10.427 5.99428 -0.986657 -201.495 -485.802 -177.965
lowerback 39.7819 3.52311 2.40624
upperback 14.3593 3.91407 -1.8889
thorax -3.01475 1.6321 -4.5905
lowerneck 0.0280076 7.80791 3.43917
upperneck -12.497 9.18332 -14.5155
head -2.80343 5.01822 -5.1386
rclavicle -6.19214e-014 7.35503e-015
rhumerus -50.3209 -53.3807 -38.8
rradius 11.8449
rwrist 48.1153
rhand 14.2075 -56.0493
rfingers 7.12502
rthumb 39.1052 638.461
lclavicle -6.19214e-014 7.35503e-015
lhumerus -28.0746 -0.434387 64.2351
lradius 24.7429
lwrist 33.9231
lhand -19.498 -360.569
lfingers 7.12502
lthumb 6.82442 29.3007
rfemur -102.308 -37.8171 11.2192
rtibia 137.46
rfoot -27.1353 19.2075
rtoes -37.4574
lfemur 481.02 85.1361 574.79
ltibia 155.767
lfoot -49.6029 -62.6778
ltoes -6.66223
2044
root -10.432 6.0095 -0.999488 -200.115 -487.469 -179.854
lowerback 39.7041 3.92116 1.82867
upperback 14.2581 4.23483 -1.87607
thorax -3.11349 1.77539 -4.39332
lowerneck -0.129124 7.54427 3.33101
upperneck -12.2823 8.93702 -13.4966
head -2.79906 4.85029 -4.80028
rclavicle -3.16068e-014 9.14409e-015
rhumerus -49.4667 -54.4947 -38.9847
rradius 12.4424
rwrist 50.7923
rhand 13.5091 -53.951
rfingers 7.12502
rthumb 38.4465 640.373
lclavicle -3.16068e-014 9.14409e-015
lhumerus -27.964 1.94102 63.6206
lradius 24.9982
lwrist 34.8108
lhand -20.585 -359.431
lfingers 7.12502
lthumb 5.775 30.4707
rfemur -101.356 -40.0254 10.7251
rtibia 137.334
rfoot -27.0863 20.7728
rtoes -37.3399
lfemur 471.427 84.5105 564.096
ltibia 155.619
lfoot -52.0631 -61.5845
ltoes -2.44562
2045
root -10.4329 6.02708 -1.01477 -198.804 -489.306 -181.643
lowerback 39.4922 4.32121 0.881702
upperback 14.1241 4.44989 -1.62524
thorax -3.25776 1.8418 -3.71591
lowerneck -0.484848 7.38076 2.56976
upperneck -11.7926 8.87909 -11.8819
head -2.72755 4.76858 -4.16402
rclavicle -1.06151e-013 3.33958e-014
rhumerus -46.6028 -54.4056 -40.9183
rradius 13.0006
rwrist 51.0072
rhand 10.9457 -51.4414
rfingers 7.12502
rthumb 36.0227 642.248
lclavicle -1.06151e-013 3.33958e-014
lhumerus -28.2589 4.61294 63.0745
lradius 25.3867
lwrist 35.7765
lhand -21.6276 -357.702
lfingers 7.12502
lthumb 4.76836 32.2248
rfemur -100.146 -42.4254 10.0198
rtibia 137.086
rfoot -27.714 22.1362
rtoes -37.9785
lfemur 493.745 86.028 585.233
ltibia 155.282
lfoot -50.7344 -59.4341
ltoes 1.42645
2046
root -10.4224 6.05933 -1.0238 -196.292 -490.806 -184.771
lowerback 38.9981 4.42584 1.01638
upperback 13.9116 4.71603 -1.31582
thorax -3.33718 1.97897 -3.54228
lowerneck -0.792163 7.19138 2.09567
upperneck -11.0924 8.83164 -10.0361
head -2.87522 4.65525 -3.86444
rclavicle -1.55052e-014 7.95139e-016
rhumerus -41.9437 -52.5289 -44.9933
rradius 13.5083
rwrist 47.546
rhand 7.6668 -49.1141
rfingers 7.12502
rthumb 32.9102 643.867
lclavicle -1.55052e-014 7.95139e-016
lhumerus -28.4883 7.17357 62.2144
lradius 25.5538
lwrist 36.4629
lhand -22.101 -356.881
lfingers 7.12502
lthumb 4.31128 33.0554
rfemur -98.4893 -43.3732 9.88401
rtibia 136.65
rfoot -27.7348 23.012
rtoes -38.6735
lfemur 547.005 85.8088 639.454
ltibia 154.959
lfoot -50.9598 -58.6908
ltoes -14.2566
2047
root -10.4001 6.10211 -1.02737 -193.595 -492.478 -188.105
lowerback 38.3065 4.27583 1.84829
upperback 13.6789 4.9089 -1.20907
thorax -3.31294 2.12253 -3.90642
lowerneck -1.09061 6.67494 2.19817
upperneck -10.5388 8.29444 -8.53812
head -2.7242 4.3213 -3.32685
rclavicle 7.07673e-014 -3.26007e-014
rhumerus -37.6 -49.9012 -49.1836
rradius 14.1934
rwrist 41.9065
rhand 4.17466 -46.9467
rfingers 7.12502
rthumb 29.5824 645.391
lclavicle 7.07673e-014 -3.26007e-014
lhumerus -28.136 9.33297 61.0381
lradius 25.2828
lwrist 37.3507
lhand -22.7814 -357.075
lfingers 7.12502
lthumb 3.6542 32.8737
rfemur -96.6103 -43.6732 9.58599
rtibia 135.987
rfoot -26.8515 24.3553
rtoes -38.3008
lfemur 575.99 82.7716 669.59
ltibia 154.583
lfoot -49.2901 -57.7892
ltoes -17.473
2048
root -10.3699 6.14225 -1.02996 -191.569 -494.455 -190.756
lowerback 37.4966 4.09679 2.34315
upperback 13.5388 4.93284 -1.09115
thorax -3.17627 2.17277 -4.01951
lowerneck -1.51903 6.22193 2.09297
upperneck -9.934 7.82663 -7.04762
head -2.52995 4.03305 -2.76073
rclavicle -3.33958e-014 4.69132e-014
rhumerus -33.8389 -47.6356 -52.327
rradius 15.0181
rwrist 36.3965
rhand 1.25561 -44.8627
rfingers 7.12502
rthumb 26.7925 647.015
lclavicle -3.33958e-014 4.69132e-014
lhumerus -28.3709 10.8984 59.8289
lradius 25.5245
lwrist 38.4742
lhand -23.393 -357.275
lfingers 7.12502
lthumb 3.06352 32.683
rfemur -94.5788 -44.0972 8.56502
rtibia 135.094
rfoot -25.2036 26.6237
rtoes -36.1903
lfemur 586.965 79.1652 680.94
ltibia 154.215
lfoot -46.8005 -56.8484
ltoes -12.6247
2049
root -10.3347 6.17855 -1.0276 -190.162 -496.272 -192.855
lowerback 36.5362 4.07093 2.38557
upperback 13.6146 4.97401 -0.859027
thorax -2.92999 2.20944 -3.78681
lowerneck -2.16314 5.76779 1.74983
upperneck -9.10183 7.34779 -5.55658
head -2.22567 3.74921 -2.15204
rclavicle -4.53229e-014 4.77083e-015
rhumerus -30.2704 -45.6418 -54.6712
rradius 15.9187
rwrist 31.5964
rhand -0.491956 -42.6426
rfingers 7.12502
rthumb 25.1191 648.99
lclavicle -4.53229e-014 4.77083e-015
lhumerus -28.0249 13.907 58.7908
lradius 24.8568
lwrist 36.6919
lhand -23.8371 -356.837
lfingers 7.12502
lthumb 2.63466 33.1266
rfemur -92.3246 -43.8991 6.91637
rtibia 133.992
rfoot -23.1608 28.851
rtoes -34.9285
lfemur 590.419 77.1078 685.032
ltibia 154.113
lfoot -41.6414 -58.9826
ltoes 5.19067
2050
root -10.2978 6.21641 -1.02115 -189.522 -498.072 -194.065
lowerback 35.7329 4.18946 2.01237
upperback 13.6383 5.04758 -0.728127
thorax -2.67024 2.2493 -3.44707
lowerneck -2.58156 5.26528 1.00718
upperneck -8.49159 6.81353 -3.65266
head -2.05886 3.45248 -1.38154
rclavicle -2.38542e-014 3.97569e-014
rhumerus -27.0859 -43.5337 -56.4026
rradius 17.0494
rwrist 27.0802
rhand -1.55316 -40.2074
rfingers 7.12502
rthumb 24.1019 651.286
lclavicle -2.38542e-014 3.97569e-014
lhumerus -28.0684 14.8065 58.1446
lradius 24.8908
lwrist 36.2084
lhand -23.8502 -356.09
lfingers 7.12502
lthumb 2.62201 33.8737
rfemur -90.1431 -43.4463 4.68032
rtibia 132.747
rfoot -22.1677 30.2205
rtoes -37.3987
lfemur 596.08 72.9056 689.454
ltibia 153.644
lfoot -40.6582 -54.9197
ltoes -0.447068
2051
root -10.2556 6.25566 -1.01423 -188.937 -499.799 -195.19
lowerback 34.964 4.30909 1.72955
upperback 13.6123 5.15833 -0.600706
thorax -2.46186 2.30947 -3.17119
lowerneck -3.02907 4.77773 0.463212
upperneck -7.8295 6.28118 -1.87316
head -1.85094 3.16022 -0.702401
rclavicle -4.37326e-014 4.13472e-014
rhumerus -24.2173 -41.0106 -57.587
rradius 18.448
rwrist 22.0515
rhand -2.76403 -37.6596
rfingers 7.12502
rthumb 22.9404 653.685
lclavicle -4.37326e-014 4.13472e-014
lhumerus -27.7747 16.2256 57.4171
lradius 24.4115
lwrist 35.8356
lhand -24.0642 -356.077
lfingers 7.12502
lthumb 2.41537 33.889
rfemur -88.0023 -42.4433 2.57553
rtibia 131.178
rfoot -21.0044 31.4903
rtoes -39.9569
lfemur 598.233 70.1206 691.232
ltibia 153.554
lfoot -35.0833 -55.9223
ltoes 11.3797
2052
root -10.2114 6.29602 -1.00683 -187.992 -501.217 -197.081
lowerback 34.3172 4.35109 1.84737
upperback 13.4873 5.30525 -0.361926
thorax -2.3747 2.39289 -3.00673
lowerneck -3.50289 4.1444 0.547362
upperneck -6.66292 5.50128 -0.590183
head -1.43948 2.74515 -0.283497
rclavicle 1.43125e-014 -3.81667e-014
rhumerus -21.5947 -37.9652 -58.4709
rradius 20.1555
rwrist 16.2948
rhand -4.61243 -35.5278
rfingers 7.12502
rthumb 21.1657 655.608
lclavicle 1.43125e-014 -3.81667e-014
lhumerus -27.4574 18.7953 56.2558
lradius 23.5329
lwrist 35.2764
lhand -26.4535 -356.499
lfingers 7.12502
lthumb 0.10772 33.4802
rfemur -85.5516 -40.1953 1.12283
rtibia 129.177
rfoot -16.9571 33.3742
rtoes -38.6935
lfemur 599.607 67.6148 692.139
ltibia 153.237
lfoot -35.5241 -52.3988
ltoes 7.66847
2053
root -10.1595 6.33952 -0.994866 -187.242 -502.502 -199.069
lowerback 33.7588 4.36269 1.86135
upperback 13.3894 5.3799 -0.0128921
thorax -2.30881 2.42865 -2.65371
lowerneck -3.6416 3.63534 0.475305
upperneck -5.69107 4.87482 0.799253
head -1.15207 2.41949 0.168183
rclavicle 1.03368e-014 1.11319e-014
rhumerus -18.9555 -34.9353 -58.9451
rradius 22.0791
rwrist 10.8578
rhand -7.13753 -34.2202
rfingers 7.12502
rthumb 18.7385 656.662
lclavicle 1.03368e-014 1.11319e-014
lhumerus -27.4353 22.5975 54.684
lradius 22.5359
lwrist 33.9706
lhand -25.957 -357.3
lfingers 7.12502
lthumb 0.587245 32.6793
rfemur -82.9687 -37.3926 -0.0819934
rtibia 126.824
rfoot -12.5919 34.5324
rtoes -38.0045
lfemur 600.907 66.0562 692.852
ltibia 152.892
lfoot -35.2857 -49.8882
ltoes 8.12998
2054
root -10.1014 6.38133 -0.977513 -186.944 -503.802 -200.584
lowerback 32.7673 4.43782 1.53441
upperback 13.7177 5.41658 0.54362
thorax -2.03514 2.43078 -2.03521
lowerneck -3.81008 3.17646 -0.105919
upperneck -4.77769 4.31695 2.41855
head -0.893138 2.14357 0.769061
rclavicle -3.49861e-014 -3.18055e-015
rhumerus -16.1684 -32.562 -58.7344
rradius 23.9548
rwrist 6.33739
rhand -9.5131 -33.6701
rfingers 7.12502
rthumb 16.4525 657.008
lclavicle -3.49861e-014 -3.18055e-015
lhumerus -27.779 26.5361 53.2102
lradius 21.8315
lwrist 32.1534
lhand -25.3712 -357.906
lfingers 7.12502
lthumb 1.15302 32.0707
rfemur -80.5408 -35.0974 -1.20268
rtibia 124.288
rfoot -11.271 34.7777
rtoes -41.3753
lfemur 602.759 64.6049 693.415
ltibia 152.501
lfoot -36.1072 -46.8813
ltoes 5.15395
2055
root -10.026 6.4339 -0.955059 -186.992 -505.067 -201.697
lowerback 32.3998 4.50062 1.41895
upperback 13.6872 5.50742 0.802988
thorax -1.95135 2.47309 -1.69161
lowerneck -3.80798 2.59598 -0.494422
upperneck -3.94716 3.56913 3.89491
head -0.665065 1.77492 1.29851
rclavicle 5.32743e-014 4.77083e-015
rhumerus -13.8355 -31.5142 -58.0031
rradius 25.8409
rwrist 2.84298
rhand -11.0273 -33.713
rfingers 7.12502
rthumb 14.9942 656.85
lclavicle 5.32743e-014 4.77083e-015
lhumerus -27.8679 28.9584 52.17
lradius 21.3156
lwrist 30.9016
lhand -25.2435 -358.694
lfingers 7.12502
lthumb 1.27636 31.282
rfemur -78.047 -32.5832 -2.61955
rtibia 121.112
rfoot -4.73566 35.6728
rtoes -37.6024
lfemur 605.788 61.3937 694.865
ltibia 151.913
lfoot -32.8711 -45.0754
ltoes 7.55059
